<svg width="512" height="512" viewBox="0 0 512 512" fill="none" xmlns="http://www.w3.org/2000/svg">
  <rect width="512" height="512" rx="118" fill="url(#paint0_linear_1_2)"/>
  <rect x="82" y="96" width="348" height="320" rx="52" fill="white" fill-opacity="0.9"/>
  <path d="M154 181C154 167.193 165.193 156 179 156H333C346.807 156 358 167.193 358 181V204H154V181Z" fill="#FDBA74"/>
  <rect x="154" y="232" width="204" height="28" rx="14" fill="#CBD5E1"/>
  <rect x="154" y="286" width="122" height="28" rx="14" fill="#CBD5E1"/>
  <path d="M323.086 254.914C337.734 240.266 361.484 240.266 376.132 254.914C390.78 269.562 390.78 293.313 376.132 307.961L327.18 356.914C321.555 362.539 312.445 362.539 306.82 356.914L282.344 332.438C267.695 317.789 267.695 294.039 282.344 279.391C296.992 264.742 320.742 264.742 335.391 279.391L338.477 282.477L323.086 297.867L319.999 294.781C313.849 288.631 303.881 288.631 297.734 294.781C291.584 300.929 291.584 310.898 297.734 317.047L317 336.313L360.742 292.57C366.892 286.422 366.892 276.453 360.742 270.305C354.594 264.156 344.625 264.156 338.477 270.305L323.086 254.914Z" fill="#EA580C"/>
  <defs>
    <linearGradient id="paint0_linear_1_2" x1="40" y1="34" x2="470" y2="496" gradientUnits="userSpaceOnUse">
      <stop stop-color="#FB923C"/>
      <stop offset="0.52" stop-color="#F97316"/>
      <stop offset="1" stop-color="#1D4ED8"/>
    </linearGradient>
  </defs>
</svg>
